<?xml version="1.0" encoding="UTF-8" standalone="no"?>
<!DOCTYPE svg PUBLIC "-//W3C//DTD SVG 1.1//EN" "http://www.w3.org/Graphics/SVG/1.1/DTD/svg11.dtd">
<svg width="100%" height="100%" viewBox="0 0 256 256" version="1.1" xmlns="http://www.w3.org/2000/svg" xmlns:xlink="http://www.w3.org/1999/xlink" xml:space="preserve" xmlns:serif="http://www.serif.com/" style="fill-rule:evenodd;clip-rule:evenodd;stroke-linejoin:round;stroke-miterlimit:2;">
    <g transform="matrix(0.862108,0,0,0.862108,17.650224,17.650224)">
        <path d="M256,64L256,192C256,227.323 227.323,256 192,256L64,256C28.677,256 0,227.323 0,192L0,64C0,28.677 28.677,0 64,0L192,0C227.323,0 256,28.677 256,64Z" style="fill:rgb(5,150,105);"/>
    </g>
    <g transform="matrix(6.251087,0,0,6.251087,52.98695,52.98695)">
        <path d="M3.955,4.061C3,5.375 3,7.251 3,11L3,13C3,16.75 3,18.625 3.955,19.939C4.263,20.363 4.637,20.737 5.061,21.045C6.375,22 8.251,22 12,22C15.749,22 17.625,22 18.939,21.045C19.363,20.737 19.737,20.363 20.045,19.939C21,18.625 21,16.749 21,13L21,11C21,7.25 21,5.375 20.045,4.061C19.737,3.637 19.363,3.263 18.939,2.955C17.625,2 15.749,2 12,2C8.251,2 6.375,2 5.061,2.955C4.637,3.263 4.263,3.636 3.955,4.06M7,8.25C6.589,8.25 6.25,8.589 6.25,9C6.25,9.411 6.589,9.75 7,9.75L17,9.75C17.411,9.75 17.75,9.411 17.75,9C17.75,8.589 17.411,8.25 17,8.25L7,8.25Z" style="fill:white;"/>
    </g>
</svg>
